<svg width="64" height="63" viewBox="0 0 64 63" fill="none" xmlns="http://www.w3.org/2000/svg">
<ellipse cx="32" cy="31.5" rx="32" ry="31.5" fill="black"/>
<rect width="31" height="31" transform="translate(16 15)" fill="black"/>
<path d="M31.5 15C27.2937 15 26.7648 15.0194 25.1121 15.093C23.4594 15.1705 22.3337 15.4301 21.3475 15.8137C20.3131 16.2028 19.3761 16.8132 18.6021 17.6021C17.8136 18.3765 17.2034 19.3133 16.8137 20.3475C16.4301 21.3317 16.1686 22.4594 16.093 24.1062C16.0194 25.7628 16 26.2898 16 30.5019C16 34.7102 16.0194 35.2372 16.093 36.8899C16.1705 38.5406 16.4301 39.6663 16.8137 40.6525C17.2109 41.6716 17.7399 42.5357 18.6021 43.3979C19.4623 44.2601 20.3264 44.791 21.3456 45.1863C22.3337 45.5699 23.4574 45.8314 25.1082 45.907C26.7628 45.9806 27.2898 46 31.5 46C35.7102 46 36.2353 45.9806 37.8899 45.907C39.5387 45.8295 40.6683 45.5699 41.6544 45.1863C42.6882 44.797 43.6245 44.1866 44.3979 43.3979C45.2601 42.5357 45.7891 41.6716 46.1863 40.6525C46.5679 39.6663 46.8295 38.5406 46.907 36.8899C46.9806 35.2372 47 34.7102 47 30.5C47 26.2898 46.9806 25.7628 46.907 24.1082C46.8295 22.4594 46.5679 21.3317 46.1863 20.3475C45.7967 19.3133 45.1864 18.3764 44.3979 17.6021C43.6242 16.8129 42.6871 16.2025 41.6525 15.8137C40.6644 15.4301 39.5368 15.1686 37.8879 15.093C36.2333 15.0194 35.7083 15 31.4961 15H31.5019H31.5ZM30.1108 17.7939H31.5019C35.6404 17.7939 36.1306 17.8074 37.7639 17.883C39.2752 17.9508 40.0967 18.2046 40.6431 18.4158C41.3657 18.6967 41.8831 19.0339 42.4256 19.5764C42.9681 20.1189 43.3033 20.6343 43.5842 21.3589C43.7973 21.9033 44.0492 22.7248 44.117 24.2361C44.1926 25.8694 44.2081 26.3596 44.2081 30.4961C44.2081 34.6327 44.1926 35.1248 44.117 36.7581C44.0492 38.2694 43.7954 39.0889 43.5842 39.6353C43.3357 40.3083 42.9391 40.9168 42.4236 41.4159C41.8811 41.9584 41.3658 42.2936 40.6411 42.5745C40.0986 42.7876 39.2771 43.0395 37.7639 43.1093C36.1306 43.1829 35.6404 43.2003 31.5019 43.2003C27.3634 43.2003 26.8713 43.1829 25.238 43.1093C23.7268 43.0395 22.9072 42.7876 22.3608 42.5745C21.6875 42.3263 21.0784 41.9304 20.5783 41.4159C20.0625 40.9161 19.6652 40.307 19.4158 39.6334C19.2046 39.0889 18.9508 38.2674 18.883 36.7562C18.8094 35.1229 18.7939 34.6327 18.7939 30.4922C18.7939 26.3538 18.8094 25.8655 18.883 24.2322C18.9527 22.7209 19.2046 21.8994 19.4178 21.3531C19.6987 20.6304 20.0358 20.1131 20.5783 19.5706C21.1208 19.0281 21.6362 18.6929 22.3608 18.4119C22.9072 18.1988 23.7268 17.9469 25.238 17.8772C26.6679 17.8113 27.222 17.7919 30.1108 17.79V17.7939ZM39.7751 20.3669C39.5308 20.3669 39.2889 20.415 39.0633 20.5085C38.8376 20.6019 38.6326 20.7389 38.4598 20.9117C38.2871 21.0844 38.1501 21.2894 38.0566 21.5151C37.9632 21.7407 37.9151 21.9826 37.9151 22.2269C37.9151 22.4711 37.9632 22.713 38.0566 22.9387C38.1501 23.1643 38.2871 23.3694 38.4598 23.5421C38.6326 23.7148 38.8376 23.8518 39.0633 23.9453C39.2889 24.0388 39.5308 24.0869 39.7751 24.0869C40.2684 24.0869 40.7415 23.8909 41.0903 23.5421C41.4391 23.1933 41.6351 22.7202 41.6351 22.2269C41.6351 21.7336 41.4391 21.2605 41.0903 20.9117C40.7415 20.5628 40.2684 20.3669 39.7751 20.3669ZM31.5019 22.5408C30.4461 22.5243 29.3976 22.718 28.4174 23.1106C27.4372 23.5033 26.5449 24.087 25.7924 24.8278C25.04 25.5686 24.4424 26.4517 24.0345 27.4257C23.6266 28.3997 23.4166 29.445 23.4166 30.501C23.4166 31.5569 23.6266 32.6023 24.0345 33.5762C24.4424 34.5502 25.04 35.4333 25.7924 36.1741C26.5449 36.9149 27.4372 37.4986 28.4174 37.8913C29.3976 38.2839 30.4461 38.4777 31.5019 38.4612C33.5916 38.4286 35.5847 37.5756 37.0509 36.0863C38.5171 34.597 39.3389 32.5909 39.3389 30.501C39.3389 28.411 38.5171 26.4049 37.0509 24.9156C35.5847 23.4264 33.5916 22.5734 31.5019 22.5408ZM31.5019 25.3327C32.8724 25.3327 34.1867 25.8771 35.1558 26.8462C36.1248 27.8152 36.6693 29.1295 36.6693 30.5C36.6693 31.8705 36.1248 33.1848 35.1558 34.1538C34.1867 35.1229 32.8724 35.6673 31.5019 35.6673C30.1315 35.6673 28.8172 35.1229 27.8481 34.1538C26.879 33.1848 26.3346 31.8705 26.3346 30.5C26.3346 29.1295 26.879 27.8152 27.8481 26.8462C28.8172 25.8771 30.1315 25.3327 31.5019 25.3327Z" fill="#F8F8F8"/>
</svg>
