<svg width="62" height="63" viewBox="0 0 62 63" fill="none" xmlns="http://www.w3.org/2000/svg">
<ellipse cx="31" cy="31.5" rx="31" ry="31.5" fill="black"/>
<g clip-path="url(#clip0_199_7)">
<rect width="32" height="31" transform="translate(15 15)" fill="black"/>
<path fill-rule="evenodd" clip-rule="evenodd" d="M38.22 33.5768C37.8227 33.3843 35.8747 32.4569 35.512 32.3278C35.1493 32.1999 34.8853 32.1366 34.62 32.5215C34.356 32.9038 33.5973 33.7693 33.3667 34.025C33.1347 34.2821 32.904 34.3131 32.508 34.1219C32.112 33.9281 30.8347 33.5238 29.3213 32.2167C28.144 31.1988 27.348 29.9421 27.1173 29.5571C26.8867 29.1735 27.092 28.9656 27.2907 28.7744C27.4693 28.6026 27.6867 28.3262 27.8853 28.1027C28.084 27.878 28.1493 27.7178 28.2813 27.4608C28.4147 27.205 28.348 26.9816 28.248 26.7891C28.1493 26.5966 27.3573 24.7069 27.0267 23.9384C26.7053 23.1905 26.3787 23.2926 26.136 23.2796C25.904 23.2693 25.64 23.2667 25.376 23.2667C25.112 23.2667 24.6827 23.3623 24.32 23.7472C23.956 24.1308 22.9333 25.0596 22.9333 26.9493C22.9333 28.8377 24.352 30.6628 24.5507 30.9198C24.7493 31.1756 27.344 35.0532 31.3187 36.7156C32.2653 37.1108 33.0027 37.3472 33.5773 37.5228C34.5267 37.8161 35.3907 37.7747 36.0733 37.6753C36.8333 37.5655 38.4173 36.7466 38.748 35.8501C39.0773 34.9537 39.0773 34.1852 38.9787 34.025C38.88 33.8648 38.616 33.7693 38.2187 33.5768H38.22ZM30.9907 43.139H30.9853C28.6246 43.1394 26.3072 42.5246 24.276 41.3591L23.796 41.0827L18.8067 42.3511L20.1387 37.6391L19.8253 37.156C18.5055 35.1208 17.8071 32.7654 17.8107 30.3618C17.8133 23.3223 23.7253 17.595 30.996 17.595C34.516 17.595 37.8253 18.9254 40.3133 21.3383C41.5405 22.5222 42.5132 23.9301 43.175 25.4805C43.8369 27.0309 44.1749 28.6931 44.1693 30.3709C44.1667 37.4105 38.2547 43.139 30.9907 43.139ZM42.2067 19.5054C40.7376 18.0728 38.9896 16.937 37.0641 16.1636C35.1386 15.3902 33.0738 14.9947 30.9893 15.0001C22.2507 15.0001 15.136 21.8911 15.1333 30.3606C15.1293 33.0559 15.8592 35.7047 17.2493 38.0395L15 46.0001L23.4053 43.8636C25.7305 45.0909 28.3361 45.7339 30.984 45.734H30.9907C39.7293 45.734 46.844 38.8429 46.8467 30.3722C46.8531 28.3537 46.4463 26.3539 45.6499 24.4887C44.8535 22.6234 43.6831 20.9297 42.2067 19.5054Z" fill="#F8F8F8"/>
</g>
<defs>
<clipPath id="clip0_199_7">
<rect width="32" height="31" fill="white" transform="translate(15 15)"/>
</clipPath>
</defs>
</svg>
