<svg width="121" viewBox="0 0 121 120" fill="none" xmlns="http://www.w3.org/2000/svg">
<path d="M13.7955 12.7955C15.586 11.0055 18.0141 10 20.5459 10C23.0776 10 25.5057 11.0055 27.2962 12.7955L61.0576 46.5569L94.819 12.7955C96.6198 11.0563 99.0316 10.0939 101.535 10.1156C104.038 10.1374 106.433 11.1415 108.203 12.9118C109.974 14.6821 110.978 17.0768 111 19.5802C111.021 22.0837 110.059 24.4955 108.32 26.2962L74.5584 60.0576L108.32 93.819C110.059 95.6198 111.021 98.0316 111 100.535C110.978 103.038 109.974 105.433 108.203 107.203C106.433 108.974 104.038 109.978 101.535 110C99.0316 110.021 96.6198 109.059 94.819 107.32L61.0576 73.5584L27.2962 107.32C25.4955 109.059 23.0837 110.021 20.5802 110C18.0768 109.978 15.6821 108.974 13.9118 107.203C12.1415 105.433 11.1374 103.038 11.1156 100.535C11.0939 98.0316 12.0563 95.6198 13.7955 93.819L47.5569 60.0576L13.7955 26.2962C12.0055 24.5057 11 22.0776 11 19.5459C11 17.0141 12.0055 14.586 13.7955 12.7955V12.7955Z" fill="black"/>
</svg>
