<svg width="100"  viewBox="0 0 100 100" fill="none" xmlns="http://www.w3.org/2000/svg">
<path d="M90 20C95.5228 20 100 15.5228 100 10V10C100 4.47715 95.5229 0 90 0L10 0C4.47716 0 0 4.47715 0 10V10C0 15.5228 4.47715 20 10 20L90 20ZM90 60C95.5228 60 100 55.5228 100 50V50C100 44.4772 95.5229 40 90 40L10 40C4.47716 40 0 44.4772 0 50V50C0 55.5228 4.47715 60 10 60L90 60ZM90 100C95.5228 100 100 95.5229 100 90V90C100 84.4772 95.5229 80 90 80L10 80C4.47716 80 0 84.4772 0 90V90C0 95.5229 4.47715 100 10 100L90 100Z" fill="black"/>
</svg>
