<svg width="350" height="175" viewBox="0 0 350 175" fill="none" xmlns="http://www.w3.org/2000/svg">
<rect width="350" height="175" rx="20" fill="#A75A5A" fill-opacity="0.33"/>
<path d="M148.838 92.984L152.918 81.848H155.246L150.086 95H147.542L142.382 81.848H144.734L148.838 92.984ZM158.523 79.712C158.107 79.712 157.755 79.568 157.467 79.28C157.179 78.992 157.035 78.64 157.035 78.224C157.035 77.808 157.179 77.456 157.467 77.168C157.755 76.88 158.107 76.736 158.523 76.736C158.923 76.736 159.259 76.88 159.531 77.168C159.819 77.456 159.963 77.808 159.963 78.224C159.963 78.64 159.819 78.992 159.531 79.28C159.259 79.568 158.923 79.712 158.523 79.712ZM159.579 81.848V95H157.395V81.848H159.579ZM162.485 88.376C162.485 87.032 162.757 85.856 163.301 84.848C163.845 83.824 164.589 83.032 165.533 82.472C166.493 81.912 167.565 81.632 168.749 81.632C169.773 81.632 170.725 81.872 171.605 82.352C172.485 82.816 173.157 83.432 173.621 84.2V77.24H175.829V95H173.621V92.528C173.189 93.312 172.549 93.96 171.701 94.472C170.853 94.968 169.861 95.216 168.725 95.216C167.557 95.216 166.493 94.928 165.533 94.352C164.589 93.776 163.845 92.968 163.301 91.928C162.757 90.888 162.485 89.704 162.485 88.376ZM173.621 88.4C173.621 87.408 173.421 86.544 173.021 85.808C172.621 85.072 172.077 84.512 171.389 84.128C170.717 83.728 169.973 83.528 169.157 83.528C168.341 83.528 167.597 83.72 166.925 84.104C166.253 84.488 165.717 85.048 165.317 85.784C164.917 86.52 164.717 87.384 164.717 88.376C164.717 89.384 164.917 90.264 165.317 91.016C165.717 91.752 166.253 92.32 166.925 92.72C167.597 93.104 168.341 93.296 169.157 93.296C169.973 93.296 170.717 93.104 171.389 92.72C172.077 92.32 172.621 91.752 173.021 91.016C173.421 90.264 173.621 89.392 173.621 88.4ZM191.52 87.92C191.52 88.336 191.496 88.776 191.448 89.24H180.936C181.016 90.536 181.456 91.552 182.256 92.288C183.072 93.008 184.056 93.368 185.208 93.368C186.152 93.368 186.936 93.152 187.56 92.72C188.2 92.272 188.648 91.68 188.904 90.944H191.256C190.904 92.208 190.2 93.24 189.144 94.04C188.088 94.824 186.776 95.216 185.208 95.216C183.96 95.216 182.84 94.936 181.848 94.376C180.872 93.816 180.104 93.024 179.544 92C178.984 90.96 178.704 89.76 178.704 88.4C178.704 87.04 178.976 85.848 179.52 84.824C180.064 83.8 180.824 83.016 181.8 82.472C182.792 81.912 183.928 81.632 185.208 81.632C186.456 81.632 187.56 81.904 188.52 82.448C189.48 82.992 190.216 83.744 190.728 84.704C191.256 85.648 191.52 86.72 191.52 87.92ZM189.264 87.464C189.264 86.632 189.08 85.92 188.712 85.328C188.344 84.72 187.84 84.264 187.2 83.96C186.576 83.64 185.88 83.48 185.112 83.48C184.008 83.48 183.064 83.832 182.28 84.536C181.512 85.24 181.072 86.216 180.96 87.464H189.264ZM200.139 95.216C198.907 95.216 197.787 94.936 196.779 94.376C195.787 93.816 195.003 93.024 194.427 92C193.867 90.96 193.587 89.76 193.587 88.4C193.587 87.056 193.875 85.872 194.451 84.848C195.043 83.808 195.843 83.016 196.851 82.472C197.859 81.912 198.987 81.632 200.235 81.632C201.483 81.632 202.611 81.912 203.619 82.472C204.627 83.016 205.419 83.8 205.995 84.824C206.587 85.848 206.883 87.04 206.883 88.4C206.883 89.76 206.579 90.96 205.971 92C205.379 93.024 204.571 93.816 203.547 94.376C202.523 94.936 201.387 95.216 200.139 95.216ZM200.139 93.296C200.923 93.296 201.659 93.112 202.347 92.744C203.035 92.376 203.587 91.824 204.003 91.088C204.435 90.352 204.651 89.456 204.651 88.4C204.651 87.344 204.443 86.448 204.027 85.712C203.611 84.976 203.067 84.432 202.395 84.08C201.723 83.712 200.995 83.528 200.211 83.528C199.411 83.528 198.675 83.712 198.003 84.08C197.347 84.432 196.819 84.976 196.419 85.712C196.019 86.448 195.819 87.344 195.819 88.4C195.819 89.472 196.011 90.376 196.395 91.112C196.795 91.848 197.323 92.4 197.979 92.768C198.635 93.12 199.355 93.296 200.139 93.296Z" fill="black"/>
</svg>
